<?xml version="1.0" standalone="no"?>
<!DOCTYPE svg PUBLIC "-//W3C//DTD SVG 20010904//EN"
 "http://www.w3.org/TR/2001/REC-SVG-20010904/DTD/svg10.dtd">
<svg version="1.0" xmlns="http://www.w3.org/2000/svg"
 width="700.000000pt" height="700.000000pt" viewBox="0 0 700.000000 700.000000"
 preserveAspectRatio="xMidYMid meet">
<metadata>
Created by potrace 1.11, written by Peter Selinger 2001-2013
</metadata>
<g transform="translate(0.000000,700.000000) scale(0.100000,-0.100000)"
fill="#000000" stroke="none">
<path d="M5355 5920 l-370 -370 -100 86 c-526 452 -1266 621 -1940 445 -356
-93 -684 -275 -941 -523 l-70 -68 -163 165 -164 164 -464 187 c-255 102 -466
184 -469 181 -3 -2 79 -213 181 -468 l185 -464 227 -227 226 -226 -37 -124
c-215 -722 -45 -1457 463 -2009 45 -48 81 -91 81 -96 0 -4 -299 -307 -665
-673 -366 -366 -665 -669 -665 -675 0 -6 128 -138 285 -295 l285 -285 483 483
482 482 1240 0 1240 0 167 -167 168 -168 75 75 75 75 -127 127 c-70 71 -123
128 -118 128 5 0 65 -55 132 -122 l123 -123 122 122 123 123 -228 228 c-125
125 -227 232 -227 237 0 6 105 -95 233 -222 l232 -233 75 73 76 72 -308 310
-308 311 0 60 0 60 70 75 c143 150 282 351 370 535 237 492 264 1076 74 1597
l-28 78 427 427 427 427 -288 288 c-158 158 -289 287 -292 287 -3 0 -172 -166
-375 -370z m302 -137 c-10 -9 -218 198 -210 210 3 5 53 -38 111 -96 59 -59
103 -110 99 -114z m-302 -313 c115 -115 203 -210 195 -210 -15 0 -420 398
-420 412 0 5 3 8 8 8 4 0 102 -94 217 -210z m-3725 25 c90 -90 162 -167 159
-169 -3 -3 -81 71 -174 164 -94 94 -165 170 -160 170 6 0 84 -74 175 -165z
m-40 -480 c0 -5 -88 78 -195 185 -107 107 -195 199 -195 205 0 5 88 -78 195
-185 107 -107 195 -199 195 -205z m1140 -435 c112 -33 238 -131 304 -237 97
-157 102 -379 13 -548 -110 -209 -371 -325 -604 -270 -410 97 -563 595 -278
903 148 160 350 214 565 152z m1830 3 c229 -63 399 -288 400 -529 0 -67 -33
-192 -67 -257 -44 -83 -155 -188 -243 -230 -222 -104 -456 -65 -625 107 -82
83 -118 145 -145 252 -35 134 -19 260 46 384 46 89 98 148 174 199 141 93 299
119 460 74z m-2600 -2178 c24 -24 42 -47 39 -50 -3 -2 -27 18 -54 45 -27 28
-45 50 -39 50 5 0 30 -20 54 -45z m850 -515 c0 -173 -4 -270 -10 -270 -6 0
-10 97 -10 270 0 173 4 270 10 270 6 0 10 -97 10 -270z m690 0 c0 -173 -4
-270 -10 -270 -6 0 -10 97 -10 270 0 173 4 270 10 270 6 0 10 -97 10 -270z
m730 0 c0 -173 -4 -270 -10 -270 -6 0 -10 97 -10 270 0 173 4 270 10 270 6 0
10 -97 10 -270z m-2443 23 c-10 -9 -218 198 -210 210 3 5 53 -38 111 -96 59
-59 103 -110 99 -114z m-282 -293 c115 -115 203 -210 195 -210 -15 0 -420 398
-420 412 0 5 3 8 8 8 4 0 102 -94 217 -210z m-405 -195 c58 -58 100 -105 95
-105 -6 0 -57 47 -115 105 -58 58 -100 105 -95 105 6 0 57 -47 115 -105z"/>
<path d="M5315 1540 l-270 -270 175 -175 175 -175 272 272 273 273 -172 172
c-95 95 -175 173 -178 173 -3 0 -127 -121 -275 -270z"/>
<path d="M5675 1180 l-280 -280 105 -106 c58 -58 123 -115 145 -126 55 -29
146 -30 200 -1 49 27 326 305 351 353 24 47 24 143 0 190 -16 31 -223 250
-236 250 -3 0 -131 -126 -285 -280z"/>
</g>
</svg>
